<?plantuml 1.2026.2?><svg xmlns="http://www.w3.org/2000/svg" xmlns:xlink="http://www.w3.org/1999/xlink" contentStyleType="text/css" data-diagram-type="DESCRIPTION" height="520px" preserveAspectRatio="none" style="width:536px;height:520px;background:#FFFFFF;" version="1.1" viewBox="0 0 536 520" width="536px" zoomAndPan="magnify"><defs/><g><!--cluster JavaFX UI--><g class="cluster" data-qualified-name="JavaFX UI" data-source-line="16" id="ent0002"><path d="M16.5,4 L84.4238,4 A3.75,3.75 0 0 1 86.9238,6.5 L93.9238,27.6094 L363.5,27.6094 A2.5,2.5 0 0 1 366,30.1094 L366,170.5 A2.5,2.5 0 0 1 363.5,173 L16.5,173 A2.5,2.5 0 0 1 14,170.5 L14,6.5 A2.5,2.5 0 0 1 16.5,4" fill="#F8FAFC" style="stroke:#94A3B8;stroke-width:1.5;"/><line style="stroke:#94A3B8;stroke-width:1.5;" x1="14" x2="93.9238" y1="27.6094" y2="27.6094"/><text fill="#000000" font-family="sans-serif" font-size="14" font-weight="bold" lengthAdjust="spacing" textLength="66.9238" x="18" y="20.5332">JavaFX UI</text></g><!--cluster Local workspace--><g class="cluster" data-qualified-name="Local workspace" data-source-line="26" id="ent0011"><path d="M83.5,419 L197.3271,419 A3.75,3.75 0 0 1 199.8271,421.5 L206.8271,442.6094 L436.5,442.6094 A2.5,2.5 0 0 1 439,445.1094 L439,510.5 A2.5,2.5 0 0 1 436.5,513 L83.5,513 A2.5,2.5 0 0 1 81,510.5 L81,421.5 A2.5,2.5 0 0 1 83.5,419" fill="#F8FAFC" style="stroke:#94A3B8;stroke-width:1.5;"/><line style="stroke:#94A3B8;stroke-width:1.5;" x1="81" x2="206.8271" y1="442.6094" y2="442.6094"/><text fill="#000000" font-family="sans-serif" font-size="14" font-weight="bold" lengthAdjust="spacing" textLength="112.8271" x="85" y="435.5332">Local workspace</text></g><!--entity Services--><g class="entity" data-qualified-name="Services" data-source-line="23" id="ent0008"><rect fill="#EFF6FF" height="47.6094" rx="2.5" ry="2.5" style="stroke:#334155;stroke-width:0.5;" width="93.6826" x="176" y="202"/><rect fill="#EFF6FF" height="10" style="stroke:#334155;stroke-width:0.5;" width="15" x="249.6826" y="207"/><rect fill="#EFF6FF" height="2" style="stroke:#334155;stroke-width:0.5;" width="4" x="247.6826" y="209"/><rect fill="#EFF6FF" height="2" style="stroke:#334155;stroke-width:0.5;" width="4" x="247.6826" y="213"/><text fill="#000000" font-family="sans-serif" font-size="14" lengthAdjust="spacing" textLength="53.6826" x="191" y="236.5332">Services</text></g><!--entity Store--><g class="entity" data-qualified-name="Store" data-source-line="24" id="ent0009"><rect fill="#EFF6FF" height="65.2188" rx="2.5" ry="2.5" style="stroke:#334155;stroke-width:0.5;" width="112.3652" x="57" y="307"/><rect fill="#EFF6FF" height="10" style="stroke:#334155;stroke-width:0.5;" width="15" x="149.3652" y="312"/><rect fill="#EFF6FF" height="2" style="stroke:#334155;stroke-width:0.5;" width="4" x="147.3652" y="314"/><rect fill="#EFF6FF" height="2" style="stroke:#334155;stroke-width:0.5;" width="4" x="147.3652" y="318"/><text fill="#000000" font-family="sans-serif" font-size="14" lengthAdjust="spacing" textLength="70.8135" x="72" y="341.5332">JsonStore /</text><text fill="#000000" font-family="sans-serif" font-size="14" lengthAdjust="spacing" textLength="72.3652" x="72" y="359.1426">repositories</text></g><!--entity Resolver--><g class="entity" data-qualified-name="Resolver" data-source-line="25" id="ent0010"><rect fill="#EFF6FF" height="47.6094" rx="2.5" ry="2.5" style="stroke:#334155;stroke-width:0.5;" width="139.5996" x="187" y="315.5"/><rect fill="#EFF6FF" height="10" style="stroke:#334155;stroke-width:0.5;" width="15" x="306.5996" y="320.5"/><rect fill="#EFF6FF" height="2" style="stroke:#334155;stroke-width:0.5;" width="4" x="304.5996" y="322.5"/><rect fill="#EFF6FF" height="2" style="stroke:#334155;stroke-width:0.5;" width="4" x="304.5996" y="326.5"/><text fill="#000000" font-family="sans-serif" font-size="14" lengthAdjust="spacing" textLength="99.5996" x="202" y="350.0332">SourceResolver</text></g><!--entity Annotator--><g class="entity" data-qualified-name="JavaFX UI.Annotator" data-source-line="17" id="ent0003"><rect fill="#EFF6FF" height="47.6094" rx="2.5" ry="2.5" style="stroke:#334155;stroke-width:0.5;" width="153.6201" x="22" y="32"/><rect fill="#EFF6FF" height="10" style="stroke:#334155;stroke-width:0.5;" width="15" x="155.6201" y="37"/><rect fill="#EFF6FF" height="2" style="stroke:#334155;stroke-width:0.5;" width="4" x="153.6201" y="39"/><rect fill="#EFF6FF" height="2" style="stroke:#334155;stroke-width:0.5;" width="4" x="153.6201" y="43"/><text fill="#000000" font-family="sans-serif" font-size="14" lengthAdjust="spacing" textLength="113.6201" x="37" y="66.5332">Annotator screens</text></g><!--entity Adjudicator--><g class="entity" data-qualified-name="JavaFX UI.Adjudicator" data-source-line="18" id="ent0004"><rect fill="#EFF6FF" height="47.6094" rx="2.5" ry="2.5" style="stroke:#334155;stroke-width:0.5;" width="162.9512" x="194.5" y="32"/><rect fill="#EFF6FF" height="10" style="stroke:#334155;stroke-width:0.5;" width="15" x="337.4512" y="37"/><rect fill="#EFF6FF" height="2" style="stroke:#334155;stroke-width:0.5;" width="4" x="335.4512" y="39"/><rect fill="#EFF6FF" height="2" style="stroke:#334155;stroke-width:0.5;" width="4" x="335.4512" y="43"/><text fill="#000000" font-family="sans-serif" font-size="14" lengthAdjust="spacing" textLength="122.9512" x="209.5" y="66.5332">Adjudicator screens</text></g><!--entity Shared--><g class="entity" data-qualified-name="JavaFX UI.Shared" data-source-line="19" id="ent0005"><rect fill="#EFF6FF" height="47.6094" rx="2.5" ry="2.5" style="stroke:#334155;stroke-width:0.5;" width="103.0342" x="91.5" y="117"/><rect fill="#EFF6FF" height="10" style="stroke:#334155;stroke-width:0.5;" width="15" x="174.5342" y="122"/><rect fill="#EFF6FF" height="2" style="stroke:#334155;stroke-width:0.5;" width="4" x="172.5342" y="124"/><rect fill="#EFF6FF" height="2" style="stroke:#334155;stroke-width:0.5;" width="4" x="172.5342" y="128"/><text fill="#000000" font-family="sans-serif" font-size="14" lengthAdjust="spacing" textLength="63.0342" x="106.5" y="151.5332">Shared UI</text></g><!--entity Snapshot--><g class="entity" data-qualified-name="Local workspace.Snapshot" data-source-line="27" id="ent0012"><rect fill="#F0FDF4" height="40.6094" rx="2.5" ry="2.5" style="stroke:#334155;stroke-width:0.5;" width="99.2549" x="89.5" y="455.5"/><polygon fill="#F0FDF4" points="171.7549,460.5,171.7549,474.5,183.7549,474.5,183.7549,466.5,177.7549,460.5,171.7549,460.5" style="stroke:#334155;stroke-width:0.5;"/><line style="stroke:#334155;stroke-width:0.5;" x1="177.7549" x2="177.7549" y1="460.5" y2="466.5"/><line style="stroke:#334155;stroke-width:0.5;" x1="183.7549" x2="177.7549" y1="466.5" y2="466.5"/><text fill="#000000" font-family="sans-serif" font-size="14" lengthAdjust="spacing" textLength="69.2549" x="99.5" y="483.0332">arbiter.json</text></g><!--entity Media--><g class="entity" data-qualified-name="Local workspace.Media" data-source-line="28" id="ent0013"><rect fill="#F0FDF4" height="58.2188" rx="2.5" ry="2.5" style="stroke:#334155;stroke-width:0.5;" width="100.8066" x="206.5" y="447"/><polygon fill="#F0FDF4" points="290.3066,452,290.3066,466,302.3066,466,302.3066,458,296.3066,452,290.3066,452" style="stroke:#334155;stroke-width:0.5;"/><line style="stroke:#334155;stroke-width:0.5;" x1="296.3066" x2="296.3066" y1="452" y2="458"/><line style="stroke:#334155;stroke-width:0.5;" x1="302.3066" x2="296.3066" y1="458" y2="458"/><text fill="#000000" font-family="sans-serif" font-size="14" lengthAdjust="spacing" textLength="42.0205" x="216.5" y="474.5332">media/</text><text fill="#000000" font-family="sans-serif" font-size="14" lengthAdjust="spacing" textLength="70.8066" x="216.5" y="492.1426">source files</text></g><!--entity Exports--><g class="entity" data-qualified-name="Local workspace.Exports" data-source-line="29" id="ent0014"><rect fill="#F0FDF4" height="58.2188" rx="2.5" ry="2.5" style="stroke:#334155;stroke-width:0.5;" width="104.71" x="325.5" y="447"/><polygon fill="#F0FDF4" points="413.21,452,413.21,466,425.21,466,425.21,458,419.21,452,413.21,452" style="stroke:#334155;stroke-width:0.5;"/><line style="stroke:#334155;stroke-width:0.5;" x1="419.21" x2="419.21" y1="452" y2="458"/><line style="stroke:#334155;stroke-width:0.5;" x1="425.21" x2="419.21" y1="458" y2="458"/><text fill="#000000" font-family="sans-serif" font-size="14" lengthAdjust="spacing" textLength="49.7998" x="335.5" y="474.5332">exports/</text><text fill="#000000" font-family="sans-serif" font-size="14" lengthAdjust="spacing" textLength="74.71" x="335.5" y="492.1426">dataset files</text></g><g class="link" data-entity-1="ent0003" data-entity-2="ent0005" data-link-type="dependency" id="lnk6"><polygon fill="#475569" points="130.6567,116.716,129.9754,106.8907,128.3148,112.2984,122.9072,110.6377,130.6567,116.716" style="stroke:#475569;stroke-width:1;"/><path d="M111.2565,80.1201 C117.3084,91.5362 121.7828,99.9766 127.8464,111.4148" fill="none" style="stroke:#475569;stroke-width:1;stroke-dasharray:7,7;"/></g><g class="link" data-entity-1="ent0004" data-entity-2="ent0005" data-link-type="dependency" id="lnk7"><polygon fill="#475569" points="180.3105,116.716,190.0634,115.3446,184.5523,114.0689,185.828,108.5577,180.3105,116.716" style="stroke:#475569;stroke-width:1;"/><path d="M238.9521,80.1201 C220.6588,91.5362 203.7294,102.1012 185.4007,113.5394" fill="none" style="stroke:#475569;stroke-width:1;stroke-dasharray:7,7;"/></g><g class="link" data-entity-1="ent0003" data-entity-2="ent0008" data-link-type="dependency" id="lnk15"><polygon fill="#475569" points="224.1026,201.7773,228.0873,192.7706,224.0941,196.7774,220.0873,192.7842,224.1026,201.7773" style="stroke:#475569;stroke-width:1;"/><path d="M158.7304,80.0419 C175.3856,89.1866 191.9306,101.34 203,117 C220.7209,142.07 224.0525,172.3231 224.0924,195.7774" fill="none" style="stroke:#475569;stroke-width:1;stroke-dasharray:7,7;"/></g><g class="link" data-entity-1="ent0004" data-entity-2="ent0008" data-link-type="dependency" id="lnk16"><polygon fill="#475569" points="231.1217,201.6257,237.8106,194.3967,232.7343,196.8929,230.2381,191.8166,231.1217,201.6257" style="stroke:#475569;stroke-width:1;"/><path d="M269.1685,80.0104 C261.5452,105.5042 248.7363,147.7979 237,184 C235.1443,189.724 235.0164,190.195 233.0568,195.9463" fill="none" style="stroke:#475569;stroke-width:1;stroke-dasharray:7,7;"/></g><g class="link" data-entity-1="ent0005" data-entity-2="ent0008" data-link-type="dependency" id="lnk17"><polygon fill="#475569" points="200.5576,201.716,197.1918,192.4601,197.0877,198.116,191.4318,198.0119,200.5576,201.716" style="stroke:#475569;stroke-width:1;"/><path d="M165.2845,165.1201 C176.2879,176.5362 185.3689,185.9578 196.3937,197.396" fill="none" style="stroke:#475569;stroke-width:1;stroke-dasharray:7,7;"/></g><g class="link" data-entity-1="ent0008" data-entity-2="ent0009" data-link-type="dependency" id="lnk18"><polygon fill="#475569" points="114.5025,306.9462,119.8418,298.6702,115.2731,302.0059,111.9374,297.4373,114.5025,306.9462" style="stroke:#475569;stroke-width:1;"/><path d="M175.5384,238.4849 C158.9851,244.6927 141.654,254.0537 130,268 C120.9579,278.8206 117.4985,287.739 115.4272,301.0179" fill="none" style="stroke:#475569;stroke-width:1;stroke-dasharray:7,7;"/><text fill="#000000" font-family="sans-serif" font-size="14" lengthAdjust="spacing" textLength="83.248" x="132" y="284.5332">reads / writes</text></g><g class="link" data-entity-1="ent0008" data-entity-2="ent0010" data-link-type="dependency" id="lnk19"><polygon fill="#475569" points="237.5502,315.2561,235.7076,305.5812,234.7006,311.1477,229.1341,310.1406,237.5502,315.2561" style="stroke:#475569;stroke-width:1;"/><path d="M220.308,250.1652 C219.6895,262.0326 220.1249,276.5638 224,289 C226.8883,298.2691 228.6851,302.475 234.1306,310.326" fill="none" style="stroke:#475569;stroke-width:1;stroke-dasharray:7,7;"/><text fill="#000000" font-family="sans-serif" font-size="14" lengthAdjust="spacing" textLength="143.1719" x="226" y="284.5332">checks / reads sources</text></g><g class="link" data-entity-1="ent0008" data-entity-2="ent0014" data-link-type="dependency" id="lnk20"><polygon fill="#475569" points="386.5496,446.7136,392.6774,439.0032,387.8026,441.8732,384.9327,436.9984,386.5496,446.7136" style="stroke:#475569;stroke-width:1;"/><path d="M270.2235,233.9205 C308.6369,240.6123 358.4617,252.0817 371,268 C411.717,319.6932 399.302,397.4501 388.0532,440.9051" fill="none" style="stroke:#475569;stroke-width:1;stroke-dasharray:7,7;"/><text fill="#000000" font-family="sans-serif" font-size="14" lengthAdjust="spacing" textLength="127.5928" x="400" y="345.5332">ExportService writes</text></g><g class="link" data-entity-1="ent0009" data-entity-2="ent0012" data-link-type="dependency" id="lnk21"><polygon fill="#475569" points="135.1972,455.3278,137.4163,445.7322,134.2482,450.4187,129.5617,447.2506,135.1972,455.3278" style="stroke:#475569;stroke-width:1;"/><path d="M119.0958,372.0343 C124.079,397.8124 129.83,427.5627 134.0584,449.4369" fill="none" style="stroke:#475569;stroke-width:1;stroke-dasharray:7,7;"/><text fill="#000000" font-family="sans-serif" font-size="14" lengthAdjust="spacing" textLength="105.8408" x="128" y="406.5332">reads / publishes</text></g><g class="link" data-entity-1="ent0010" data-entity-2="ent0013" data-link-type="dependency" id="lnk22"><polygon fill="#475569" points="257,446.58,261,437.58,257,441.58,253,437.58,257,446.58" style="stroke:#475569;stroke-width:1;"/><path d="M257,363.6214 C257,386.6046 257,415.8993 257,440.58" fill="none" style="stroke:#475569;stroke-width:1;stroke-dasharray:7,7;"/><text fill="#000000" font-family="sans-serif" font-size="14" lengthAdjust="spacing" textLength="35.0205" x="259" y="406.5332">reads</text></g><?plantuml-src RPDFRzim3CNl_XHSUa_N9UdQ7GQaNGMis7POC627NHYPYTNOea79yRfXttsA_oHoufj9_lGUzGI_AGMt1KAEhrnvS0Lvj9YudR4b2XQmHhtR2bSsVUIS1UhCU8hcAMsmohrYwxzXGR12wrOaPZFEhCmVWfjvD7GPfbmRkuKDvYwMrboKR2aSygyvGLNaxwBfKeJhTgUh-Vl5ulP-xEZ3sVfNJqhTAZMAigGa7JQRpMyMYmWhWn1kwK9FtQcbUXm1OxNx-NBsS1T1ADviK5-kfzwgJse-Hevivxa4px1cxpcaR8IqDsoJfDi19i-uH_KJVdoUmDy4JdU5oT9QzkY3cjD2PDq4qC6nUmQdBrLgz2L-wWyFh38KIXlVWBLL84wcq-d7g1t9HuD_IQn8iZUQMj--Y85dntOL50YkVrcXafq9bUbF72O3FQv4qtTodEz96gOlJl5zOOqvr2mx5thKXjY_24nGrk5daEbBi6vTB9OkOp-W2aeDXfrSumWRatSxVJqC1YZzBbcy2t2A7XtvY7vgPo6Lv2p6FeoB6Fj1znh3NlVHTflSFe0GfWwkePPmhpEcJoTWEYEzEt0jtrxi3E_M3NJxrGsFqerZuzrb5jcNrJetBWlOqVH0Dddrs7y0?></g></svg>