<?plantuml 1.2026.2?><svg xmlns="http://www.w3.org/2000/svg" xmlns:xlink="http://www.w3.org/1999/xlink" contentStyleType="text/css" data-diagram-type="CLASS" height="320px" preserveAspectRatio="none" style="width:580px;height:320px;background:#FFFFFF;" version="1.1" viewBox="0 0 580 320" width="580px" zoomAndPan="magnify"><defs/><g><!--class Project--><g class="entity" data-qualified-name="Project" data-source-line="15" id="ent0002"><rect fill="#EFF6FF" height="39.6094" rx="2.5" ry="2.5" style="stroke:#334155;stroke-width:0.5;" width="61.5723" x="7" y="127"/><text fill="#000000" font-family="sans-serif" font-size="14" lengthAdjust="spacing" textLength="43.5723" x="16" y="152.5332">Project</text></g><!--class Split--><g class="entity" data-qualified-name="Split" data-source-line="16" id="ent0003"><rect fill="#EFF6FF" height="39.6094" rx="2.5" ry="2.5" style="stroke:#334155;stroke-width:0.5;" width="45.2344" x="110" y="86"/><text fill="#000000" font-family="sans-serif" font-size="14" lengthAdjust="spacing" textLength="27.2344" x="119" y="111.5332">Split</text></g><!--class Item--><g class="entity" data-qualified-name="Item" data-source-line="17" id="ent0004"><rect fill="#EFF6FF" height="39.6094" rx="2.5" ry="2.5" style="stroke:#334155;stroke-width:0.5;" width="45.2275" x="110" y="164"/><text fill="#000000" font-family="sans-serif" font-size="14" lengthAdjust="spacing" textLength="27.2275" x="119" y="189.5332">Item</text></g><!--class SplitItem--><g class="entity" data-qualified-name="SplitItem" data-source-line="18" id="ent0005"><rect fill="#EFF6FF" height="39.6094" rx="2.5" ry="2.5" style="stroke:#334155;stroke-width:0.5;" width="72.4619" x="205.5" y="93"/><text fill="#000000" font-family="sans-serif" font-size="14" lengthAdjust="spacing" textLength="54.4619" x="214.5" y="118.5332">SplitItem</text></g><!--class Assignment--><g class="entity" data-qualified-name="Assignment" data-source-line="19" id="ent0006"><rect fill="#EFF6FF" height="39.6094" rx="2.5" ry="2.5" style="stroke:#334155;stroke-width:0.5;" width="91.1445" x="196" y="18"/><text fill="#000000" font-family="sans-serif" font-size="14" lengthAdjust="spacing" textLength="73.1445" x="205" y="43.5332">Assignment</text></g><!--class User--><g class="entity" data-qualified-name="User" data-source-line="20" id="ent0007"><rect fill="#EFF6FF" height="39.6094" rx="2.5" ry="2.5" style="stroke:#334155;stroke-width:0.5;" width="47.5586" x="526" y="63"/><text fill="#000000" font-family="sans-serif" font-size="14" lengthAdjust="spacing" textLength="29.5586" x="535" y="88.5332">User</text></g><!--class Annotation--><g class="entity" data-qualified-name="Annotation" data-source-line="21" id="ent0008"><rect fill="#EFF6FF" height="39.6094" rx="2.5" ry="2.5" style="stroke:#334155;stroke-width:0.5;" width="84.9443" x="328" y="108"/><text fill="#000000" font-family="sans-serif" font-size="14" lengthAdjust="spacing" textLength="66.9443" x="337" y="133.5332">Annotation</text></g><!--class Resolution--><g class="entity" data-qualified-name="Resolution" data-source-line="22" id="ent0009"><rect fill="#EFF6FF" height="39.6094" rx="2.5" ry="2.5" style="stroke:#334155;stroke-width:0.5;" width="84.1514" x="199.5" y="168"/><text fill="#000000" font-family="sans-serif" font-size="14" lengthAdjust="spacing" textLength="66.1514" x="208.5" y="193.5332">Resolution</text></g><!--reverse link Project to Split--><g class="link" data-entity-1="ent0002" data-entity-2="ent0003" data-link-type="dependency" data-source-line="24" id="lnk10"><path codeLine="24" d="M74.5161,131.2604 C87.8161,125.3704 97.67,121 109.82,115.61" fill="none" id="Project-backto-Split" style="stroke:#475569;stroke-width:1;"/><polygon fill="#475569" points="69.03,133.69,78.8788,133.7031,73.6017,131.6654,75.6394,126.3883,69.03,133.69" style="stroke:#475569;stroke-width:1;"/></g><!--reverse link Project to Item--><g class="link" data-entity-1="ent0002" data-entity-2="ent0004" data-link-type="dependency" data-source-line="25" id="lnk11"><path codeLine="25" d="M74.6009,161.2383 C87.9009,166.5583 97.67,170.47 109.82,175.33" fill="none" id="Project-backto-Item" style="stroke:#475569;stroke-width:1;"/><polygon fill="#475569" points="69.03,159.01,75.9007,166.0664,73.6724,160.867,78.8719,158.6386,69.03,159.01" style="stroke:#475569;stroke-width:1;"/></g><!--reverse link Split to SplitItem--><g class="link" data-entity-1="ent0003" data-entity-2="ent0005" data-link-type="dependency" data-source-line="26" id="lnk12"><path codeLine="26" d="M161.1373,107.8106 C175.5473,108.7506 188.82,109.62 205.4,110.7" fill="none" id="Split-backto-SplitItem" style="stroke:#475569;stroke-width:1;"/><polygon fill="#475569" points="155.15,107.42,163.8705,111.9974,160.1394,107.7455,164.3913,104.0143,155.15,107.42" style="stroke:#475569;stroke-width:1;"/></g><!--reverse link Item to SplitItem--><g class="link" data-entity-1="ent0004" data-entity-2="ent0005" data-link-type="dependency" data-source-line="27" id="lnk13"><path codeLine="27" d="M160.1506,166.3143 C175.9106,155.8643 192.46,144.88 209.96,133.27" fill="none" id="Item-backto-SplitItem" style="stroke:#475569;stroke-width:1;"/><polygon fill="#475569" points="155.15,169.63,164.8614,167.9901,159.3172,166.8669,160.4404,161.3227,155.15,169.63" style="stroke:#475569;stroke-width:1;"/></g><!--reverse link Split to Assignment--><g class="link" data-entity-1="ent0003" data-entity-2="ent0006" data-link-type="dependency" data-source-line="28" id="lnk14"><path codeLine="28" d="M160.214,89.0219 C175.604,79.2419 191.46,69.17 208.73,58.19" fill="none" id="Split-backto-Assignment" style="stroke:#475569;stroke-width:1;"/><polygon fill="#475569" points="155.15,92.24,164.8914,90.7889,159.37,89.5583,160.6006,84.0369,155.15,92.24" style="stroke:#475569;stroke-width:1;"/></g><!--link Assignment to User--><g class="link" data-entity-1="ent0006" data-entity-2="ent0007" data-link-type="dependency" data-source-line="29" id="lnk15"><path codeLine="29" d="M287.33,36.28 C340.59,35.47 431.6,38.02 506,60 C512.66,61.97 514.1531,62.2306 520.3331,65.4906" fill="none" id="Assignment-to-User" style="stroke:#475569;stroke-width:1;"/><polygon fill="#475569" points="525.64,68.29,519.5459,60.5529,521.2176,65.9571,515.8134,67.6288,525.64,68.29" style="stroke:#475569;stroke-width:1;"/><text fill="#000000" font-family="sans-serif" font-size="14" lengthAdjust="spacing" textLength="59.1582" x="341" y="27.5332">annotator</text></g><!--reverse link Assignment to Annotation--><g class="link" data-entity-1="ent0006" data-entity-2="ent0008" data-link-type="dependency" data-source-line="30" id="lnk16"><path codeLine="30" d="M275.896,61.6684 C296.816,76.4884 320.2,93.06 341.09,107.87" fill="none" id="Assignment-backto-Annotation" style="stroke:#475569;stroke-width:1;"/><polygon fill="#475569" points="271,58.2,276.0317,66.6665,275.08,61.0903,280.6562,60.1386,271,58.2" style="stroke:#475569;stroke-width:1;"/></g><!--reverse link Item to Annotation--><g class="link" data-entity-1="ent0004" data-entity-2="ent0008" data-link-type="dependency" data-source-line="31" id="lnk17"><path codeLine="31" d="M159.9951,206.982 C171.3151,215.742 181.12,221.46 196,226 C234.69,237.79 250.33,243.06 287,226 C321.28,210.05 346.41,172.07 359.43,148.35" fill="none" id="Item-backto-Annotation" style="stroke:#475569;stroke-width:1;"/><polygon fill="#475569" points="155.25,203.31,159.9197,211.9815,159.2043,206.37,164.8157,205.6546,155.25,203.31" style="stroke:#475569;stroke-width:1;"/></g><!--link Annotation to User--><g class="link" data-entity-1="ent0008" data-entity-2="ent0007" data-link-type="dependency" data-source-line="32" id="lnk18"><path codeLine="32" d="M413.09,118.15 C439.71,111.76 474.95,103.14 506,95 C512.45,93.31 513.6411,93.0138 520.0511,91.2238" fill="none" id="Annotation-to-User" style="stroke:#475569;stroke-width:1;"/><polygon fill="#475569" points="525.83,89.61,516.0858,88.178,521.0142,90.9548,518.2375,95.8833,525.83,89.61" style="stroke:#475569;stroke-width:1;"/><text fill="#000000" font-family="sans-serif" font-size="14" lengthAdjust="spacing" textLength="59.1582" x="440" y="85.5332">annotator</text></g><!--reverse link Item to Resolution--><g class="link" data-entity-1="ent0004" data-entity-2="ent0009" data-link-type="dependency" data-source-line="33" id="lnk19"><path codeLine="33" d="M161.1459,185.0319 C173.8459,185.5019 184.32,185.9 199.4,186.46" fill="none" id="Item-backto-Resolution" style="stroke:#475569;stroke-width:1;"/><polygon fill="#475569" points="155.15,184.81,163.9959,189.1401,160.1466,184.9949,164.2918,181.1456,155.15,184.81" style="stroke:#475569;stroke-width:1;"/></g><g class="legend" data-source-line="35"><rect fill="none" height="39.6094" rx="7.5" ry="7.5" style="stroke:#000000;stroke-width:1;" width="215.7373" x="175.4106" y="261.06"/><text fill="#000000" font-family="sans-serif" font-size="14" lengthAdjust="spacing" textLength="193.7373" x="186.4106" y="286.5932">Arrows follow stored identifiers.</text></g><?plantuml-src RP71QiCm38RlUGf1pnahJJesng0R2-monieUm8sLnAjj1SabR4-_D4aRq_LYv4-_z4j8ziQtYfM3dIhtDTF1wnUonD0r9c0Yvxp6IXriACY7T-KGjihB5jbKrpLRyukmpAAaD4fJPtmDbR8IjswLraU-ZfWdZO8jhF88ilBx8ynk8xXXfcwSUP7TvVdwFagMLeayNwosU2sATL7yan5hv4coMcNBF4yQen7GjU477BeTieoeD5nQJ2nM0G81cxe9e0rZ6Gpv91aQmWVJTq-ctxQrvXI_1NGnZluR4LDxX_wa_HBaKyvx2cgm6C4d2jd3w3cvmMEQJbun6Hm6F0i6Tdmkq2oBXfb3IDEdOIfu03LEH1pdXyfvrBD3nERmUhTpJRoXnHgzXXs5G2w1yVG25LbB7KXVXnhwy_XWAjFVwYRfvMFH7m00?></g></svg>